<svg xmlns="http://www.w3.org/2000/svg" viewBox="0 0 80 70" width="80" height="70"><g opacity="0.4"><path d="M 46.0 35.0 L 46.7 35.3 L 46.7 37.6 L 45.4 39.6 L 44.9 40.5 L 43.4 41.7 L 40.5 42.6 L 36.2 43.5 L 34.4 42.8 L 32.3 41.3 L 28.3 40.6 L 26.4 37.9 L 24.3 36.0 L 23.8 34.0 L 24.1 30.0 L 25.3 26.1 L 28.6 24.3 L 33.9 21.6 L 37.2 20.7 L 43.9 19.4 L 48.1 20.5 L 52.7 21.8 L 58.5 24.4 L 60.9 28.0 L 65.1 31.8 L 65.8 37.6 L 65.7 41.1 L 63.7 44.7 L 59.3 50.0 L 52.9 54.2 L 46.8 55.8 L 39.4 55.4 L 31.0 56.5 L 24.4 54.2 L 16.0 51.5 L 10.5 46.2 L 6.0 41.6 L 3.9 34.3 L 4.1 28.9 L 7.8 21.6 L 11.7 16.6 L 18.6 12.0 L 27.6 8.3 " fill="none" stroke="#8B8474" stroke-width="1.5" stroke-linecap="round" stroke-linejoin="round"/></g></svg>